<svg xmlns="http://www.w3.org/2000/svg" fill="none" viewBox="0 0 24 24"><path stroke="currentColor" stroke-linecap="round" stroke-linejoin="round" stroke-width="1.5" d="M7.75 19V4m-4 12s2.946 4 4 4 4-4 4-4"/><path fill="currentColor" d="M16.25 17.249a.75.75 0 1 0 0 1.5zm3 1.5a.75.75 0 0 0 0-1.5zm-3.409-.641-.716-.224zm-1.307 1.667a.75.75 0 0 0 1.432.448l-.716-.224zm5 .448a.75.75 0 0 0 1.432-.448L20.25 20zm.125-2.115.716-.224zm-3.409-.109v.75h3v-1.5h-3zm-.409.109-.716-.224-.59 1.891.715.224.716.224.59-1.892zm4.409 1.891.716-.224-.591-1.891-.716.224-.716.223.591 1.892zm-4.409-1.891.716.223c.398-1.274.675-2.156.938-2.727.13-.285.23-.43.294-.495.045-.046.024-.007-.039-.007v-1.5c-.43 0-.776.195-1.036.461-.24.248-.426.573-.582.914-.313.681-.623 1.677-1.007 2.907zm3.818 0 .716-.224c-.384-1.23-.694-2.226-1.007-2.907-.156-.34-.341-.666-.582-.914-.26-.266-.606-.461-1.036-.461v1.5c-.063 0-.084-.04-.04.007.065.066.164.21.295.495.263.571.54 1.453.938 2.727z"/><path stroke="currentColor" stroke-linecap="round" stroke-linejoin="round" stroke-width="1.5" d="M15.75 4h2.365c.924 0 1.385 0 1.52.288s-.16.643-.752 1.352l-2.266 2.72c-.591.71-.887 1.064-.752 1.352s.596.288 1.52.288h2.365"/></svg>