<svg xmlns="http://www.w3.org/2000/svg" fill="none" viewBox="0 0 24 24"><path stroke="currentColor" stroke-linejoin="round" stroke-width="1.5" d="m5 16 5-3m4-2 5-3m-7-3v5m0 4v5M5 8l5 3m4 2 5 3m1.5-7v5.5m-7 6 5.5-3m-14.5 0 6 3m-7-5.5V9m1-2.5 6-3m9 3-6-3"/><circle cx="12" cy="3.5" r="1.5" stroke="currentColor" stroke-linejoin="round" stroke-width="1.5"/><circle cx="12" cy="20.5" r="1.5" stroke="currentColor" stroke-linejoin="round" stroke-width="1.5"/><circle cx="3.5" cy="7.5" r="1.5" stroke="currentColor" stroke-linejoin="round" stroke-width="1.5"/><circle cx="20.5" cy="7.5" r="1.5" stroke="currentColor" stroke-linejoin="round" stroke-width="1.5"/><circle cx="20.5" cy="16.5" r="1.5" stroke="currentColor" stroke-linejoin="round" stroke-width="1.5"/><circle cx="3.5" cy="16.5" r="1.5" stroke="currentColor" stroke-linejoin="round" stroke-width="1.5"/><path stroke="currentColor" stroke-linejoin="round" stroke-width="1.5" d="m12 9.75 2 1.125v2.25l-2 1.125-2-1.125v-2.25z"/></svg>